# xmcd
#
# Track frame offsets: 
#        150
#        35256
#        53338
#        68027
#        77300
#        95624
#        111456
#        130303
#        148756
#        166518
#        173748
#        185536
#        203363
#        211232
#        287903
#        321014
#        328832
#        336612
#
# Disc length: 4720 seconds
#
# Revision: 0
# Processed by: cddbd v1.5.2PL0 Copyright (c) Steve Scherf et al.
# Submitted via: ExactAudioCopy v0.95b4
#
DISCID=00126e12
DTITLE=The Beatles  - AB  Road - Complete Purple Chick Set v1.1 Jan.27
DTITLE=Various Artist - D2  FLAC
DYEAR=1900
DGENRE=
TTITLE0=Oh! Darling 27.06
TTITLE1=Let It Be 27.07
TTITLE2=Let It Be 27.08
TTITLE3=Let It Be 27.09
TTITLE4=Let It Be 27.10
TTITLE5=Let It Be 27.11
TTITLE6=Let It Be 27.12
TTITLE7=Let It Be 27.13
TTITLE8=Let It Be 27.14
TTITLE9=Let It Be 27.15
TTITLE10=Let It Be 27.16
TTITLE11=Let It Be 27.17
TTITLE12=Let It Be 27.18
TTITLE13=The Long And Winding Road 27.19
TTITLE14=The Long And Winding Road 27.20
TTITLE15=Little Demon 27.21
TTITLE16=The Long And Winding Road 27.22
TTITLE17=The Long And Winding Road 27.23
EXTD=
EXTT0=
EXTT1=
EXTT2=
EXTT3=
EXTT4=
EXTT5=
EXTT6=
EXTT7=
EXTT8=
EXTT9=
EXTT10=
EXTT11=
EXTT12=
EXTT13=
EXTT14=
EXTT15=
EXTT16=
EXTT17=
PLAYORDER=
